<?xml version="1.0" encoding="utf-8"?>
<!-- Generator: Adobe Illustrator 25.2.3, SVG Export Plug-In . SVG Version: 6.00 Build 0)  -->
<svg version="1.1" id="Calque_1" xmlns="http://www.w3.org/2000/svg" xmlns:xlink="http://www.w3.org/1999/xlink" x="0px" y="0px"
	 viewBox="0 0 300 300" style="enable-background:new 0 0 300 300;" xml:space="preserve">
<path d="M241.7,16H58.3c-3.7,0-6.7,3-6.7,6.7v254.6c0,3.7,3,6.7,6.7,6.7h183.5c3.7,0,6.7-3,6.7-6.7V22.7C248.4,19,245.4,16,241.7,16
	z M78.8,48.3h142.5v13H78.8V48.3z M72.2,108.9c0-2.7,2.2-5,5-5h44.6c2.7,0,5,2.2,5,5v44.6c0,2.7-2.2,5-5,5H77.1c-2.7,0-5-2.2-5-5
	V108.9z M227.8,233.8H72.2v-4.3h155.6V233.8z M227.8,208.7H72.2v-4.3h155.6V208.7z M227.8,183.6H72.2v-4.3h155.6V183.6z
	 M227.8,158.5h-91v-4.3h91V158.5z M227.8,133.4h-91V129h91V133.4z M227.8,108.3h-91v-4.3h91V108.3z"/>
</svg>
