<?xml version="1.0" encoding="utf-8"?>
<!-- Generator: Adobe Illustrator 25.2.3, SVG Export Plug-In . SVG Version: 6.00 Build 0)  -->
<svg version="1.1" id="Calque_1" xmlns="http://www.w3.org/2000/svg" xmlns:xlink="http://www.w3.org/1999/xlink" x="0px" y="0px"
	 viewBox="0 0 300 300" style="enable-background:new 0 0 300 300;" xml:space="preserve">
<path d="M214.5,61.6H22.2c-2.5,0-4.6,2.1-4.6,4.6v48.7c0,2.5,2.1,4.6,4.6,4.6h192.3c2.5,0,4.6-2.1,4.6-4.6V66.1
	C219.1,63.6,217,61.6,214.5,61.6z M47,110.4c-11,0-19.9-8.9-19.9-19.9c0-11,8.9-19.9,19.9-19.9s19.9,8.9,19.9,19.9
	C66.9,101.5,58,110.4,47,110.4z M202.8,100.1H76.6V95h126.2V100.1z M202.8,86H76.6v-5.1h126.2V86z"/>
<path d="M214.5,189.6H22.2c-2.5,0-4.6,2.1-4.6,4.6v48.7c0,2.5,2.1,4.6,4.6,4.6h192.3c2.5,0,4.6-2.1,4.6-4.6v-48.7
	C219.1,191.6,217,189.6,214.5,189.6z M47,238.4c-11,0-19.9-8.9-19.9-19.9c0-11,8.9-19.9,19.9-19.9s19.9,8.9,19.9,19.9
	C66.9,229.5,58,238.4,47,238.4z M202.8,228.1H76.6V223h126.2V228.1z M202.8,214H76.6v-5.1h126.2V214z"/>
<path d="M277.8,125.6H85.5c-2.5,0-4.6,2.1-4.6,4.6v48.7c0,2.5,2.1,4.6,4.6,4.6h192.3c2.5,0,4.6-2.1,4.6-4.6v-48.7
	C282.4,127.6,280.4,125.6,277.8,125.6z M223.4,164.1H97.2V159h126.2V164.1z M223.4,150H97.2v-5.1h126.2V150z M253,174.4
	c-11,0-19.9-8.9-19.9-19.9c0-11,8.9-19.9,19.9-19.9s19.9,8.9,19.9,19.9C272.9,165.5,264,174.4,253,174.4z"/>
</svg>
