<?xml version="1.0" encoding="utf-8"?>
<!-- Generator: Adobe Illustrator 25.2.3, SVG Export Plug-In . SVG Version: 6.00 Build 0)  -->
<svg version="1.1" id="Calque_1" xmlns="http://www.w3.org/2000/svg" xmlns:xlink="http://www.w3.org/1999/xlink" x="0px" y="0px"
	 viewBox="0 0 300 300" style="enable-background:new 0 0 300 300;" xml:space="preserve">
<path d="M265.1,53.1H123.2c-9.6,0-17.4,7.8-17.4,17.4v53.4h25.6c2.9,0,5.3,2.4,5.3,5.3v9.1h41.1c9.6,0,17.4,7.8,17.4,17.4v5.1h69.9
	c9.6,0,17.4-7.8,17.4-17.4V70.5C282.4,60.9,274.7,53.1,265.1,53.1z M181.2,133.9h-4.2V82h4.2V133.9z M222.1,109l-35.1,24.2
	c-0.5,0.3-1.1,0-1.1-0.6V83.3c0-0.6,0.6-0.9,1.1-0.6l35.1,24.2C222.8,107.4,222.8,108.5,222.1,109z"/>
<g>
	<circle cx="104.5" cy="193.1" r="36.2"/>
	<path d="M176.8,139.2h-41.1v-9.1c0-2.9-2.4-5.3-5.3-5.3H78.7c-2.9,0-5.3,2.4-5.3,5.3v9.1h-7V138c0-2.9-2.4-5.3-5.3-5.3H42.7
		c-2.9,0-5.3,2.4-5.3,5.3v1.2h-2.5c-9.6,0-17.4,7.8-17.4,17.4v72.9c0,9.6,7.8,17.4,17.4,17.4h141.9c9.6,0,17.4-7.8,17.4-17.4v-72.9
		C194.1,147,186.4,139.2,176.8,139.2z M104.5,232.5c-21.7,0-39.4-17.6-39.4-39.4c0-21.7,17.6-39.4,39.4-39.4
		c21.7,0,39.4,17.6,39.4,39.4C143.9,214.8,126.3,232.5,104.5,232.5z M176.2,164.5c-4.5,0-8.1-3.6-8.1-8.1s3.6-8.1,8.1-8.1
		s8.1,3.6,8.1,8.1S180.7,164.5,176.2,164.5z"/>
	<circle cx="176.2" cy="156.5" r="6.4"/>
</g>
</svg>
