<?xml version="1.0" encoding="utf-8"?>
<!-- Generator: Adobe Illustrator 25.2.3, SVG Export Plug-In . SVG Version: 6.00 Build 0)  -->
<svg version="1.1" id="Calque_1" xmlns="http://www.w3.org/2000/svg" xmlns:xlink="http://www.w3.org/1999/xlink" x="0px" y="0px"
	 viewBox="0 0 300 300" style="enable-background:new 0 0 300 300;" xml:space="preserve">
<path d="M66.4,272.8c-3.7,0-6.7-3-6.7-6.7V38.4h-8c-3.7,0-6.7,3-6.7,6.7v232.2c0,3.7,3,6.7,6.7,6.7h167c3.7,0,6.7-3,6.7-6.7v-4.5
	H66.4z"/>
<path d="M247.2,261.6h-167c-3.7,0-6.7-3-6.7-6.7V22.7c0-3.7,3-6.7,6.7-6.7h167c3.7,0,6.7,3,6.7,6.7v232.2
	C253.9,258.6,250.9,261.6,247.2,261.6z"/>
</svg>
