<?xml version="1.0" encoding="utf-8"?>
<!-- Generator: Adobe Illustrator 25.2.3, SVG Export Plug-In . SVG Version: 6.00 Build 0)  -->
<svg version="1.1" id="Calque_1" xmlns="http://www.w3.org/2000/svg" xmlns:xlink="http://www.w3.org/1999/xlink" x="0px" y="0px" viewBox="0 0 300 300" enable-background="new 0 0 300 300" xml:space="preserve">
	<g>
		<g id="XMLID_1_">
			<g>
				<path d="M247.3,68.1l47.4,102l-49.8,23.1l-6.4-13.8l-34.3-73.8l-6.7-14.4L247.3,68.1z M240.7,97.4c4.4-0.8,7.4-5.1,6.5-9.5c-0.8-4.4-5.1-7.4-9.5-6.5c-4.4,0.8-7.4,5.1-6.5,9.5C232,95.4,236.3,98.3,240.7,97.4z M220.7,107.2c4.4-0.8,7.4-5.1,6.5-9.5c-0.8-4.4-5.1-7.4-9.6-6.5c-4.4,0.8-7.3,5.1-6.5,9.6C212,105.1,216.3,108,220.7,107.2z"/>
				<path d="M247.3,87.9c0.8,4.4-2.1,8.7-6.5,9.5c-4.4,0.8-8.7-2.1-9.5-6.5c-0.8-4.4,2.1-8.7,6.5-9.5C242.1,80.5,246.4,83.5,247.3,87.9z"/>
				<path d="M204.2,105.7l34.3,73.8l-9.9,7.7l-4.3-4l-14.8-13.8c-8.3-7.7-16.1-15.8-23.4-24.4c-5.7-6.7-14.6-15.2-24.5-16.5c-19-2.5-24.6,17.9-39.7,18.1c-11,0.2-13-8.4-10.5-16.6c1.8-6,8.9-13.8,14-17.3c0.3-0.2,0.6-0.4,0.8-0.5c12.3-7.7,26.4-12.1,40.9-13.3l11.4-0.9C187.3,99.6,197,102.1,204.2,105.7z"/>
				<path d="M208.3,206.9c0,0.1,0.1,0.2,0.1,0.3c0.7,1.6,1.1,3.4,1.1,5.3c0,7.4-6,13.4-13.4,13.4c-3.4,0-6.5-1.3-8.8-3.3c0.3,1,0.5,2.1,0.5,3.3c0,5.8-4.7,10.5-10.6,10.5c-1.9,0-3.7-0.5-5.2-1.4l-3.6-3.4l-6.8-6.4c-1.2,1.8-4,3.9-6.5,4.5c-3.7,1-7.4,1.2-11.1,0.8c0.1-1.3,0.1-3.4,0.1-3.8c0-4.4-3.6-8-8-8c-3,0-5.4,3.9-7.1,6.1c-0.2-0.2-0.5-0.3-0.7-0.5c0.9-2,3.7-6.3,3.7-8.6c0-5.8-4.7-10.5-10.5-10.5c-3.2,0-7.8,3.6-9.6,6l-0.4-0.3c2.3-1.8,6.6-9.4,6.6-12.5c0-6.9-5.6-12.4-12.4-12.4c-4.1,0-11.6,6.1-13.5,9.3l-0.2-0.1c2-2.1,2.9-5.1,2.9-8.2c0-7.3-5.9-13.2-13.2-13.2c-4.1,0-7.8,1.9-10.2,4.9l-9-7.2l23.1-85.1c0.3,0.7,6.3,13.4,57.5,9.7c11.8-0.9,23.6-0.2,35.3,2.1l-11.4,0.9c-14.5,1.2-28.6,5.6-40.9,13.3c-0.3,0.2-0.5,0.4-0.8,0.5c-5.2,3.5-12.2,11.3-14,17.3c-2.5,8.3-0.5,16.9,10.5,16.6c15.1-0.3,20.7-20.7,39.7-18.1c9.9,1.3,18.9,9.8,24.5,16.5c7.3,8.6,15.2,16.7,23.4,24.4l14.8,13.8l4.3,4c1.7,2.3,2.6,5.2,2.6,8.3c0,7.9-6.4,14.4-14.4,14.4c-2.8,0-5.5-0.8-7.7-2.2L208.3,206.9z"/>
				<path d="M227.2,97.7c0.8,4.4-2.1,8.7-6.5,9.5c-4.4,0.8-8.7-2.1-9.5-6.5c-0.8-4.4,2.1-8.7,6.5-9.6C222.1,90.3,226.4,93.2,227.2,97.7z"/>
				<path d="M144,230.5c0,0.5-0.1,0.9-0.2,1c-1.9,2.3-5.2,2.2-8.9,0.5c-3.7-1.7-8.4-4-5.9-7.3c1.7-2.2,4.1-6.1,7.1-6.1c4.4,0,8,3.6,8,8C144.1,227.1,144.1,229.2,144,230.5z"/>
				<path d="M132.1,215.6c0,2.4-2.8,6.6-3.7,8.6c-1.5,3.3-8.4,1.5-12.1-1.6c-4.4-3.5-6.6-8.3-4.2-11.6c1.8-2.4,6.4-6,9.6-6C127.4,205.1,132.1,209.8,132.1,215.6z"/>
				<path d="M118.3,198.3c0,3.1-4.3,10.7-6.6,12.5c-4.9,3.9-10.3,2.5-14.7-1c-5.2-4.2-8.7-7.6-4.6-14.6c1.9-3.3,9.4-9.3,13.5-9.3C112.7,185.9,118.3,191.4,118.3,198.3z"/>
				<path d="M95.1,186.8c0,3.1-0.9,6.2-2.9,8.2c-6.5,6.6-12.1,4.1-17.1,0c-5.2-4.3-8.9-9.8-3.4-16.5c2.4-3,6.1-4.9,10.2-4.9C89.2,173.7,95.1,179.6,95.1,186.8z"/>
				<path d="M85.8,86.1l-23.1,85.1L59.3,184l-53-14.4L35.6,61.1l53,14.4L85.8,86.1z M77.1,86.1c0-4.5-3.7-8.2-8.2-8.2c-4.5,0-8.2,3.7-8.2,8.2c0,4.5,3.7,8.2,8.2,8.2C73.5,94.3,77.1,90.6,77.1,86.1z M55.6,80.2c0-4.5-3.7-8.2-8.2-8.2c-4.5,0-8.2,3.7-8.2,8.2c0,4.5,3.7,8.2,8.2,8.2C52,88.4,55.6,84.7,55.6,80.2z"/>
				<path d="M68.9,78c4.5,0,8.2,3.7,8.2,8.2c0,4.5-3.7,8.2-8.2,8.2c-4.5,0-8.2-3.7-8.2-8.2C60.8,81.6,64.4,78,68.9,78z"/>
				<path d="M47.5,72.1c4.5,0,8.2,3.7,8.2,8.2c0,4.5-3.7,8.2-8.2,8.2c-4.5,0-8.2-3.7-8.2-8.2C39.3,75.7,42.9,72.1,47.5,72.1z"/>
			</g>
			<g>
				<polygon fill="none" stroke="#FFFFFF" stroke-width="4" stroke-miterlimit="10" points="62.7,171.3 59.3,184 6.2,169.6 35.6,61.1 88.7,75.5 85.8,86.1 			"/>
				<line fill="none" stroke="#FFFFFF" stroke-width="4" stroke-miterlimit="10" x1="92.4" y1="195.2" x2="92.2" y2="195.1"/>
				<path fill="none" stroke="#FFFFFF" stroke-width="4" stroke-miterlimit="10" d="M129,224.7c-0.2-0.2-0.5-0.3-0.7-0.5"/>
				<path fill="none" stroke="#FFFFFF" stroke-width="4" stroke-miterlimit="10" d="M143.8,230.5c0.1,0,0.1,0,0.2,0c3.7,0.4,7.4,0.2,11.1-0.8c2.5-0.7,5.2-2.7,6.5-4.5"/>
				<line fill="none" stroke="#FFFFFF" stroke-width="4" stroke-miterlimit="10" x1="112" y1="211.1" x2="111.7" y2="210.8"/>
				<line fill="none" stroke="#FFFFFF" stroke-width="4" stroke-miterlimit="10" x1="71.7" y1="178.5" x2="62.7" y2="171.3"/>
				<path fill="none" stroke="#FFFFFF" stroke-width="4" stroke-miterlimit="10" d="M187.3,222.5c0.3,1,0.5,2.1,0.5,3.3c0,5.8-4.7,10.5-10.6,10.5c-1.9,0-3.7-0.5-5.2-1.4"/>
				<path fill="none" stroke="#FFFFFF" stroke-width="4" stroke-miterlimit="10" d="M186.1,220c0.5,0.8,0.9,1.6,1.2,2.5c2.4,2.1,5.5,3.3,8.8,3.3c7.4,0,13.4-6,13.4-13.4c0-1.9-0.4-3.7-1.1-5.3c0-0.1-0.1-0.2-0.1-0.3"/>
				<path fill="none" stroke="#FFFFFF" stroke-width="4" stroke-miterlimit="10" d="M228.6,187.2c1.7,2.3,2.6,5.2,2.6,8.3c0,7.9-6.4,14.4-14.4,14.4c-2.8,0-5.5-0.8-7.7-2.2c-0.2-0.1-0.5-0.3-0.7-0.5"/>
				<polyline fill="none" stroke="#FFFFFF" stroke-width="4" stroke-miterlimit="10" points="155.8,191.6 182.4,216.6 182.5,216.6 182.5,216.6 184,218 186.1,220 186.1,220 			"/>
				<polyline fill="none" stroke="#FFFFFF" stroke-width="4" stroke-miterlimit="10" points="145.7,210.3 161.6,225.2 168.4,231.6 172.1,235 			"/>
				<polyline fill="none" stroke="#FFFFFF" stroke-width="4" stroke-miterlimit="10" points="209.1,207.7 208.3,206.9 205.2,204 205.2,204 200.9,200 171.9,172.8 			"/>
				<path fill="none" stroke="#FFFFFF" stroke-width="4" stroke-miterlimit="10" d="M204.2,105.7c-7.2-3.5-16.9-6-25.7-7.8c-11.6-2.2-23.5-2.9-35.3-2.1c-51.2,3.7-57.2-9-57.5-9.7c0,0,0,0,0,0"/>
				<path fill="none" stroke="#FFFFFF" stroke-width="4" stroke-miterlimit="10" d="M178.5,97.9l-11.4,0.9c-14.5,1.2-28.6,5.6-40.9,13.3c-0.3,0.2-0.5,0.4-0.8,0.5c-5.2,3.5-12.2,11.3-14,17.3c-2.5,8.3-0.5,16.9,10.5,16.6c15.1-0.3,20.7-20.7,39.7-18.1c9.9,1.3,18.9,9.8,24.5,16.5c7.3,8.6,15.2,16.7,23.4,24.4l14.8,13.8l4.3,4l9.9-7.7"/>
				<polygon fill="none" stroke="#FFFFFF" stroke-width="4" stroke-miterlimit="10" points="204.2,105.7 197.5,91.3 247.3,68.1 294.7,170.1 244.9,193.2 238.5,179.5 			"/>
				<path fill="none" stroke="#FFFFFF" stroke-width="4" stroke-miterlimit="10" d="M71.7,178.5c2.4-3,6.1-4.9,10.2-4.9c7.3,0,13.2,5.9,13.2,13.2c0,3.1-0.9,6.2-2.9,8.2c-6.5,6.6-12.1,4.1-17.1,0C69.9,190.8,66.2,185.2,71.7,178.5z"/>
				<path fill="none" stroke="#FFFFFF" stroke-width="4" stroke-miterlimit="10" d="M92.4,195.2c1.9-3.3,9.4-9.3,13.5-9.3c6.9,0,12.4,5.6,12.4,12.4c0,3.1-4.3,10.7-6.6,12.5c-4.9,3.9-10.3,2.5-14.7-1C91.7,205.6,88.3,202.3,92.4,195.2z"/>
				<path fill="none" stroke="#FFFFFF" stroke-width="4" stroke-miterlimit="10" d="M112,211.1c1.8-2.4,6.4-6,9.6-6c5.8,0,10.5,4.7,10.5,10.5c0,2.4-2.8,6.6-3.7,8.6c-1.5,3.3-8.4,1.5-12.1-1.6C111.8,219.2,109.6,214.3,112,211.1z"/>
				<path fill="none" stroke="#FFFFFF" stroke-width="4" stroke-miterlimit="10" d="M129,224.7c1.7-2.2,4.1-6.1,7.1-6.1c4.4,0,8,3.6,8,8c0,0.4,0,2.5-0.1,3.8c0,0.5-0.1,0.9-0.2,1c-1.9,2.3-5.2,2.2-8.9,0.5C131.2,230.2,126.5,227.9,129,224.7z"/>
				<path fill="none" stroke="#FFFFFF" stroke-width="4" stroke-miterlimit="10" d="M77.1,86.1c0,4.5-3.7,8.2-8.2,8.2c-4.5,0-8.2-3.7-8.2-8.2c0-4.5,3.7-8.2,8.2-8.2C73.5,78,77.1,81.6,77.1,86.1z"/>
				<path fill="none" stroke="#FFFFFF" stroke-width="4" stroke-miterlimit="10" d="M55.6,80.2c0,4.5-3.7,8.2-8.2,8.2c-4.5,0-8.2-3.7-8.2-8.2c0-4.5,3.7-8.2,8.2-8.2C52,72.1,55.6,75.7,55.6,80.2z"/>
				<path fill="none" stroke="#FFFFFF" stroke-width="4" stroke-miterlimit="10" d="M211.2,100.7c0.8,4.4,5.1,7.4,9.5,6.5c4.4-0.8,7.4-5.1,6.5-9.5c-0.8-4.4-5.1-7.4-9.6-6.5C213.3,92,210.3,96.3,211.2,100.7z"/>
				<path fill="none" stroke="#FFFFFF" stroke-width="4" stroke-miterlimit="10" d="M231.2,90.9c0.8,4.4,5.1,7.4,9.5,6.5c4.4-0.8,7.4-5.1,6.5-9.5c-0.8-4.4-5.1-7.4-9.5-6.5C233.3,82.2,230.4,86.5,231.2,90.9z"/>
			</g>
		</g>
	</g>
</svg>
