<?xml version="1.0" encoding="utf-8"?>
<!-- Generator: Adobe Illustrator 25.2.3, SVG Export Plug-In . SVG Version: 6.00 Build 0)  -->
<svg version="1.1" id="Calque_1" xmlns="http://www.w3.org/2000/svg" xmlns:xlink="http://www.w3.org/1999/xlink" x="0px" y="0px" viewBox="0 0 300 300" enable-background="new 0 0 300 300" xml:space="preserve">
	<path d="M275.9,259.5L178.4,162c-0.2-0.2-0.5-0.5-0.8-0.7c12.4-15.1,19.8-34.5,19.8-55.6c0-48.5-39.3-87.9-87.9-87.9c-48.5,0-87.9,39.3-87.9,87.9c0,48.5,39.3,87.9,87.9,87.9c21.1,0,40.5-7.4,55.6-19.8c0.2,0.3,0.4,0.5,0.7,0.8l97.5,97.5c3.5,3.5,9.1,3.5,12.5,0C279.3,268.6,279.3,263,275.9,259.5z M109.6,178.3c-40.1,0-72.5-32.5-72.5-72.5c0-40.1,32.5-72.5,72.5-72.5c40.1,0,72.5,32.5,72.5,72.5C182.1,145.8,149.6,178.3,109.6,178.3z"/>
</svg>
