<?xml version="1.0" encoding="utf-8"?>
<!-- Generator: Adobe Illustrator 25.2.3, SVG Export Plug-In . SVG Version: 6.00 Build 0)  -->
<svg version="1.1" id="Calque_1" xmlns="http://www.w3.org/2000/svg" xmlns:xlink="http://www.w3.org/1999/xlink" x="0px" y="0px"
	 viewBox="0 0 797.8 100.2" style="enable-background:new 0 0 797.8 100.2;" xml:space="preserve">
<style type="text/css">
	.st0{fill:#8A0100;}
	.st1{fill:#B41C06;}
	.st2{fill:#DE351D;}
	.st3{fill:#D30000;}
</style>
<g id="Black_On_White">
	<g id="Planète-3">
		<g id="O-11">
			<path class="st0" d="M282,63.7c-6.1,21.6-25.7,36.5-48.1,36.5c-1.5,0-3-0.1-4.5-0.2c3.2-1.6,6.7-2.8,10.1-4.3
				c5.3-2.3,10.6-5.9,12.3-11.6c0.8-2.8,0.6-5.8,0.8-8.8s0.8-6.1,2.8-8.1c1.6-1.4,3.5-2.3,5.6-2.8C267.7,62.5,275,62.3,282,63.7z"/>
		</g>
		<g id="O-12">
			<path class="st1" d="M264.4,10.5c-4.5,3.9-9.2,7.5-14.1,9.4c-4.2,1.6-8.6,1.8-13,1.9c-3.5,0.1-6.9,0-10.4-0.1c-2,0-3.9-0.3-5.8-1
				c-2.7-1.3-4.8-3.4-6.1-6.1c-1.4-2.3-2-5.1-1.7-7.8c0.2-0.9,0.4-1.8,0.8-2.6C230.7-3,250-0.6,264.4,10.5L264.4,10.5z"/>
		</g>
		<g id="O-13">
			<path class="st0" d="M282.9,40.4c-9,2.9-18.2,5-27.6,6.4c-9.1,1.1-18.2,1.6-27.4,1.6c-6.5,0.1-13.1,0.1-19.7,0.1
				c-2.9,0-6.5-0.5-7.4-3c-0.3-1.2,0-2.5,0.9-3.5c1.7-2.2,4.7-3.3,7.3-4.8s5-3.9,4.5-6.5c-0.6-1.8-2-3.3-3.8-3.9
				c-1.9-0.6-3.9-0.9-5.9-0.9c-4.9-0.1-9.7,0.3-14.5,1.2c5.3-10.3,14-18.4,24.6-23c-0.4,0.8-0.7,1.7-0.8,2.6
				c-0.3,2.7,0.3,5.4,1.7,7.8c1.3,2.6,3.5,4.8,6.1,6.1c1.8,0.7,3.8,1,5.8,1c3.5,0.1,6.9,0.2,10.4,0.1c4.4-0.1,8.8-0.3,13-1.9
				c5-1.9,9.6-5.5,14.1-9.4C274,17.9,280.5,28.5,282.9,40.4z"/>
		</g>
		<g id="O-14">
			<path class="st2" d="M227.9,76.5c-3,1.2-6.5,1.3-9.9,1.3s-6.8-0.2-10,0.6c-1.4,0.3-2.6,0.9-3.7,1.8c-1,1.1-1.7,2.5-1.9,3.9
				c-0.3,1.5-0.4,3.1-0.3,4.7c-9.3-7.6-15.6-18.4-17.6-30.2c0.9,0.3,1.9,0.7,2.8,0.9c9.5,2.8,19.4,4.1,29.3,3.9
				c3.3-0.1,6.6-0.3,9.8,0.5s6.1,2.9,6.5,5.7S230.9,75.3,227.9,76.5z"/>
		</g>
		<g id="O-15">
			<path class="st3" d="M283.8,50.1c0,4.6-0.6,9.1-1.9,13.5c-7-1.4-14.3-1.2-21.2,0.8c-2.1,0.4-4,1.4-5.6,2.8
				c-2,2.1-2.6,5.2-2.8,8.1s0.1,6-0.8,8.8c-1.6,5.6-7,9.2-12.3,11.6c-3.3,1.5-6.8,2.6-10.1,4.3c-10-0.9-19.4-4.8-27.2-11.1
				c-0.1-1.6,0-3.1,0.3-4.7c0.2-1.5,0.9-2.8,1.9-3.9c1.1-0.9,2.3-1.5,3.7-1.8c3.2-0.8,6.7-0.7,10-0.6s6.9,0,9.9-1.3s5.5-4,5.1-6.9
				s-3.4-4.9-6.5-5.7s-6.5-0.6-9.8-0.5c-9.9,0.2-19.8-1.1-29.3-3.9c-0.9-0.3-1.9-0.6-2.8-0.9c-0.4-2.6-0.7-5.3-0.7-7.9l0,0
				c0-0.2,0-0.3,0-0.5c0-8,1.9-15.9,5.6-23c4.8-0.9,9.6-1.3,14.5-1.2c2-0.1,4,0.2,5.9,0.9c1.8,0.6,3.3,2,3.8,3.9
				c0.5,2.7-1.9,5.1-4.5,6.5s-5.6,2.6-7.3,4.8c-0.8,1-1.2,2.3-0.9,3.5c0.8,2.5,4.5,3,7.4,3c6.6,0,13.1,0,19.7-0.1
				c9.1,0,18.3-0.5,27.4-1.5c9.4-1.4,18.6-3.5,27.6-6.4C283.5,43.6,283.8,46.9,283.8,50.1z"/>
		</g>
	</g>
	<g id="Texte-3">
		<path id="S-3" d="M777.8,20.1h-50c-5.3,0-9.6,4-10,9.3c0,0.2,0,0.5,0,0.8s0,0.5,0,0.8c0.4,5.2,4.8,9.3,10,9.2h40
			c2.7,0,5.3,0.3,7.9,1.1c9.5,2.6,17.1,9.7,20.4,18.9c1.1,3.2,1.7,6.6,1.7,10c0,16.6-13.4,30-30,30l0,0h-70l9.5-20h60.5
			c5.2,0,9.6-4,10-9.2c0-0.2,0-0.5,0-0.8s0-0.5,0-0.8c-0.4-5.2-4.8-9.3-10-9.2h-40c-2.7,0-5.3-0.3-7.9-1.1
			c-16-4.3-25.5-20.7-21.3-36.7c3.5-13.2,15.5-22.4,29.2-22.3h70l-9.5,20L777.8,20.1z"/>
		<path id="R-3" d="M648,0.2c15.9,0.9,28.3,14,28.3,30c0,3.4-0.6,6.8-1.7,10c-2.4,6.9-7.3,12.7-13.7,16.2l-0.7,0.4
			c-4.3,2.2-9,3.4-13.8,3.4h-4.9L656.3,73l20,17.3l11.3,9.8h-29.9l-28.5-24.6l-1.5-1.4l-0.1-0.1c-3.7-3.6-5.9-8.5-6-13.6
			c0-0.1,0-0.2,0-0.3v-0.3c0-1.6,0.2-3.1,0.6-4.6c0.3-1.3,0.8-2.6,1.4-3.9c0.6-1.2,1.3-2.4,2.1-3.5c3.5-4.6,8.8-7.4,14.6-7.7
			c0.4,0,0.8,0,1.2,0h4.9c5.2,0,9.6-4,10-9.2c0-0.2,0-0.5,0-0.8s0-0.5,0-0.8c-0.4-5.2-4.8-9.3-10-9.2h-0.5L586.5,20L577,0"/>
		<path id="A-3" d="M586.5,100.1H563l-30.8-64.6l0,0l-28.1,59l-2.7,5.6h-23.5l4.4-9.2l3.3-7l26.1-54.7l4.9-10.3l6-12.6l0.2-0.4
			l0.1-0.1c0.1-0.1,0.2-0.3,0.2-0.5s0.2-0.3,0.3-0.5s0.3-0.5,0.5-0.7s0.4-0.5,0.6-0.7c0.1-0.1,0.3-0.3,0.4-0.4
			c0.2-0.2,0.5-0.5,0.8-0.7c0.8-0.7,1.7-1.2,2.7-1.6c1.3-0.5,2.6-0.8,4-0.8c1.1,0,2.2,0.2,3.3,0.5c0.2,0,0.3,0.1,0.5,0.2l0.5,0.2
			c0.2,0.1,0.4,0.2,0.6,0.3l0.3,0.2c0.1,0.1,0.2,0.1,0.3,0.2c0.2,0.1,0.4,0.3,0.7,0.4c0.1,0.1,0.2,0.1,0.3,0.2c0.8,0.6,1.4,1.2,2,2
			l0.3,0.4c0.2,0.3,0.3,0.5,0.5,0.8c0,0,0,0,0,0.1c0.2,0.3,0.3,0.6,0.4,1l5.9,12.4L582.2,91L586.5,100.1z"/>
		<path id="M-3" d="M283.8,100.1l4.4-9.2l3.3-7l31-64.9l5.8-12.2l0-0.1c0.1-0.3,0.3-0.7,0.5-1c0,0,0,0,0-0.1
			c0.2-0.3,0.3-0.6,0.5-0.8c0.1-0.1,0.2-0.3,0.3-0.4c0.6-0.8,1.2-1.4,2-2c0.1-0.1,0.2-0.2,0.3-0.2c0.2-0.2,0.4-0.3,0.7-0.4l0.3-0.2
			l0.3-0.2l0.6-0.3l0.5-0.2l0.5-0.2c1.1-0.3,2.2-0.5,3.3-0.5c1.4,0,2.7,0.3,4,0.8c1,0.4,1.9,0.9,2.7,1.6c0.3,0.2,0.5,0.4,0.8,0.7
			c0.1,0.1,0.3,0.3,0.4,0.4c0.2,0.2,0.4,0.4,0.6,0.7s0.3,0.5,0.5,0.7l0.3,0.5c0.1,0.1,0.2,0.3,0.2,0.5c0,0,0.1,0.1,0.1,0.1l0,0
			l28,58.7l27.9-58.5l0.1-0.2l0.1-0.1c0.1-0.2,0.2-0.3,0.2-0.5s0.2-0.3,0.3-0.5s0.3-0.5,0.5-0.7s0.4-0.5,0.6-0.7s0.3-0.3,0.4-0.4
			s0.5-0.5,0.8-0.7c0.8-0.7,1.7-1.2,2.7-1.6c1.3-0.5,2.6-0.8,4-0.8c1.1,0,2.2,0.2,3.3,0.5l0.5,0.2l0.5,0.2c0.2,0.1,0.4,0.2,0.6,0.3
			l0.3,0.2l0.3,0.2c0.2,0.1,0.4,0.3,0.7,0.4c0.1,0.1,0.2,0.2,0.3,0.2c0.8,0.6,1.4,1.2,2,2l0.3,0.4c0.2,0.3,0.3,0.5,0.5,0.8
			c0,0,0,0,0,0.1c0.2,0.3,0.3,0.7,0.5,1c0,0,0,0.1,0,0.1L429,19L460,84l3.3,7l4.4,9.2h-23.5l-30.8-64.6l-27.9,58.6c-1,2.2-2.8,4-5,5
			c-2.9,1.4-6.2,1.4-9.1,0c-0.3-0.1-0.5-0.3-0.8-0.4c-0.5-0.3-1-0.6-1.5-1c-0.2-0.2-0.4-0.4-0.7-0.6c-0.4-0.4-0.8-0.9-1.2-1.4
			c-0.4-0.5-0.7-1-0.9-1.6l-0.2-0.4l-27.8-58.2l-30.8,64.6L283.8,100.1z"/>
		<path id="W-3" d="M183.8,0.1l-4.4,9.2l-3.3,7l-31,64.9l-5.8,12.2l0,0.1c-0.1,0.3-0.3,0.7-0.5,1c0,0,0,0,0,0.1
			c-0.2,0.3-0.3,0.6-0.5,0.8c-0.1,0.1-0.2,0.3-0.3,0.4c-0.6,0.8-1.2,1.4-2,2c-0.1,0.1-0.2,0.2-0.3,0.2c-0.2,0.2-0.4,0.3-0.7,0.4
			l-0.3,0.2l-0.3,0.2c-0.2,0.1-0.4,0.2-0.6,0.3l-0.5,0.2l-0.5,0.2c-1.1,0.3-2.2,0.5-3.3,0.5c-1.4,0-2.7-0.3-4-0.8
			c-1-0.4-1.9-0.9-2.7-1.6c-0.3-0.2-0.5-0.4-0.8-0.7c-0.1-0.1-0.3-0.3-0.4-0.4c-0.2-0.2-0.4-0.4-0.6-0.7s-0.3-0.5-0.5-0.7l-0.3-0.5
			c-0.1-0.1-0.2-0.3-0.2-0.5c0,0-0.1-0.1-0.1-0.2l0,0l-28-58.7L64,94l-0.1,0.2l-0.1,0.1c-0.1,0.2-0.2,0.3-0.2,0.5s-0.2,0.3-0.3,0.5
			S63,95.7,62.8,96s-0.4,0.5-0.6,0.7S62,96.9,61.9,97s-0.5,0.5-0.8,0.7c-0.8,0.7-1.7,1.2-2.7,1.6c-1.3,0.5-2.6,0.8-4,0.8
			c-1.1,0-2.2-0.2-3.3-0.5l-0.5-0.2l-0.5-0.2c-0.2-0.1-0.4-0.2-0.6-0.3l-0.4-0.2l-0.3-0.2c-0.2-0.1-0.4-0.3-0.6-0.4
			c-0.1-0.1-0.2-0.2-0.3-0.2c-0.8-0.6-1.4-1.2-2-2l-0.3-0.4c-0.2-0.3-0.4-0.5-0.5-0.8c0,0,0,0,0-0.1c-0.2-0.3-0.3-0.7-0.5-1
			c0,0,0-0.1-0.1-0.1l-5.8-12.2l-31-64.9l-3.3-7L0,0.1h23.6l30.8,64.6L82.3,6.2c1-2.2,2.8-4,5-5c2.9-1.4,6.2-1.4,9.1,0
			c0.3,0.1,0.5,0.3,0.8,0.4c0.5,0.3,1,0.6,1.5,1c0.2,0.2,0.4,0.4,0.7,0.6c0.4,0.4,0.8,0.9,1.2,1.4c0.4,0.5,0.7,1,0.9,1.6l0.2,0.4
			l27.8,58.2l30.8-64.6L183.8,0.1z"/>
	</g>
</g>
</svg>
